<svg id="logo" xmlns="http://www.w3.org/2000/svg" xmlns:xlink="http://www.w3.org/1999/xlink" width="174.241" height="129" viewBox="0 0 174.241 129">
  <defs>
    <clipPath id="clip-path">
      <rect id="Rectangle_22" data-name="Rectangle 22" width="174.241" height="129" fill="none"/>
    </clipPath>
  </defs>
  <g id="Group_35" data-name="Group 35" clip-path="url(#clip-path)">
    <path id="Path_68" data-name="Path 68" d="M25.441,111.413h5.68v-3.681H22.787v3.681Zm-2.654,3.577v5.364H18.343V107.969a5.352,5.352,0,0,1,.893-3.129,2.626,2.626,0,0,1,2.208-1.289H32.487a2.587,2.587,0,0,1,2.157,1.289,4.883,4.883,0,0,1,.9,2.945v12.569H31.121v-5.364Zm27.163-1.369H40.743a4.024,4.024,0,0,1-2.431-1.524,4.819,4.819,0,0,1-.934-3.024v-1.132a5.164,5.164,0,0,1,.947-3.1,2.917,2.917,0,0,1,2.367-1.313H54.814V107.6H42.165v2.34h9.2a4.171,4.171,0,0,1,2.472,1.211,3.858,3.858,0,0,1,.974,2.812v1.975a5.03,5.03,0,0,1-1,3.129,2.907,2.907,0,0,1-2.391,1.288H37.354v-3.917h12.6Zm19.167,0h-9.2a4.016,4.016,0,0,1-2.433-1.524,4.8,4.8,0,0,1-.934-3.024v-1.132a5.164,5.164,0,0,1,.948-3.1,2.918,2.918,0,0,1,2.366-1.313H73.983V107.6H61.334v2.34h9.2a4.17,4.17,0,0,1,2.473,1.211,3.87,3.87,0,0,1,.973,2.812v1.975a5.037,5.037,0,0,1-1,3.129,2.907,2.907,0,0,1-2.392,1.288H56.524v-3.917H69.117Zm19.616-5.889H80.344v8.439h8.389Zm1.342-4.182a2.632,2.632,0,0,1,2.209,1.288,5.177,5.177,0,0,1,.921,3.13v7.969a5.169,5.169,0,0,1-.921,3.129,2.628,2.628,0,0,1-2.209,1.288H79a2.623,2.623,0,0,1-2.206-1.288,5.345,5.345,0,0,1-.9-3.129v-7.969a5.346,5.346,0,0,1,.9-3.13A2.627,2.627,0,0,1,79,103.551Zm22.377,0v4.182h-6.126v12.622H101.38V107.733h-6.1v-4.182Zm9.017,6.5h9.363V113.7h-9.363Zm10.23,6.126H118.815v-8.442h12.833v-4.182H117.473a2.631,2.631,0,0,0-2.209,1.288,5.362,5.362,0,0,0-.894,3.13v7.969a5.36,5.36,0,0,0,.894,3.129,2.627,2.627,0,0,0,2.209,1.288H131.7Zm19.223,0v4.183H136.7a2.63,2.63,0,0,1-2.21-1.288,5.36,5.36,0,0,1-.894-3.129v-7.969a5.352,5.352,0,0,1,.894-3.129,2.632,2.632,0,0,1,2.21-1.289h14.173v4.182H138.036v8.439Zm14.514-12.621h4.682v16.8h-4.682v-6.021h-8.018v6.021h-4.6v-16.8h4.6v6.863h8.018Z" transform="translate(-7.408 -41.808)" fill="#0085d3"/>
    <path id="Path_69" data-name="Path 69" d="M44.12,139.315v19.546h4.087v-6.4h12.86c5.4,0,7.8-3.058,7.8-6.6,0-3.515-2.4-6.544-7.8-6.544Zm4.087,9.544v-5.944H61.266a2.993,2.993,0,1,1,0,5.944Zm24.415,10h4.086v-6.429h12.8c2.6,0,3.2,1.4,3.2,2.486v3.944H96.94V155c0-2.029-1.086-3.629-3.572-4.429a5.011,5.011,0,0,0,4-5.172c0-3.915-2.972-6.087-7.773-6.087H72.622ZM76.708,148.8v-5.887h13.2c2.515,0,3.286,1.657,3.286,2.943s-.771,2.944-3.286,2.944Zm25.158,10.058h4.087V139.314h-4.087Zm9.384,0h16.06c7,0,9.4-3.343,9.4-9.773s-2.4-9.773-9.4-9.773H111.25Zm21.29-9.773c0,3.743-.572,5.772-5.229,5.772H115.337V143.287h11.974c4.658,0,5.229,2.057,5.229,5.8m32.617-5.887v-3.886H149.668c-7,0-9.431,3.343-9.431,9.773s2.429,9.773,9.431,9.773h15.489v-3.915H149.668c-3.829,0-4.973-1.429-5.258-4.029h20.4v-3.658h-20.4c.286-2.6,1.429-4.058,5.258-4.058Z" transform="translate(-17.818 -56.262)" fill="#0085d3"/>
    <path id="Path_70" data-name="Path 70" d="M44.12,139.315v19.546h4.087v-6.4h12.86c5.4,0,7.8-3.058,7.8-6.6,0-3.515-2.4-6.544-7.8-6.544Zm4.087,9.544v-5.944H61.266a2.993,2.993,0,1,1,0,5.944Zm24.415,10h4.086v-6.429h12.8c2.6,0,3.2,1.4,3.2,2.486v3.944H96.94V155c0-2.029-1.086-3.629-3.572-4.429a5.011,5.011,0,0,0,4-5.172c0-3.915-2.972-6.087-7.773-6.087H72.622ZM76.708,148.8v-5.887h13.2c2.515,0,3.286,1.657,3.286,2.943s-.771,2.944-3.286,2.944Zm25.158,10.058h4.087V139.314h-4.087Zm9.384,0h16.06c7,0,9.4-3.343,9.4-9.773s-2.4-9.773-9.4-9.773H111.25Zm21.29-9.773c0,3.743-.572,5.772-5.229,5.772H115.337V143.287h11.974C131.968,143.287,132.54,145.344,132.54,149.088Zm32.617-5.887v-3.886H149.668c-7,0-9.431,3.343-9.431,9.773s2.429,9.773,9.431,9.773h15.489v-3.915H149.668c-3.829,0-4.973-1.429-5.258-4.029h20.4v-3.658h-20.4c.286-2.6,1.429-4.058,5.258-4.058Z" transform="translate(-17.818 -56.262)" fill="none" stroke="#006da9" stroke-width="0.216"/>
    <path id="Path_71" data-name="Path 71" d="M108.589,11.793c20.45-2.36,38.4,12.433,41.018,32.708a36.735,36.735,0,0,1,.256,6.617h4.963l.01-.2c.091.07.186.138.282.2h5.692a3.925,3.925,0,0,0,.608-2.421,3.419,3.419,0,0,0-6.144-2.139l-.311-.644c-.033-.106-.086-.237-.116-.354l-.135-1.667-2.029-.383c-1.21-9.36-4.16-13.034-8-19.4.671-2.041.538-.143.884-2.146a4,4,0,0,1-1.843-1.927c7.8-.261,3.34-9.939-1.584-6.4-1.172.842-1.133,2.178-1.824,3.423L139,15.712c-1.625.7-.378.642-2.239.918-4.617-4.3-11.414-6.324-19.037-7.878l-.347-2.095-2.985-.086c.6-1.053,1.754-2.2,1.178-4.206C114-3.068,104.785,2,110,6.154l-1.268.492c-.027.007-.976.093-1.127.108-.244,1.691.077.975-.645,1.957-5.827.845-16.042,4.543-18.736,7.976-1.86-.386-.752-.319-2.439-.972l-1.96,2.049c-.73-8.126-9.519-3.774-6.708,1.078.85,1.467,2.243,1.552,3.873,1.765L79.3,22.216c.638,1.974.529.4.974,2.475-3.893,2.826-7.047,13.437-7.972,18.911l-2.082.311-.281,2.818c-2.951-2.56-6.515-1.084-6.365,2.374a3.731,3.731,0,0,0,.662,2.014h10.82c-1.4-19.51,13.114-36.971,33.531-39.326" transform="translate(-25.674 0)" fill="#004973"/>
    <path id="Path_72" data-name="Path 72" d="M148.364,61.7c1.584-.254,3.06-.647,5.662-1.312q-.059.668-.128,1.312h2.393a30.1,30.1,0,0,0-.123-5.957c-2.087-16.581-16.836-31.7-36.8-29.284C102.392,28.516,88.722,42.9,89.869,61.7h2.29a8.674,8.674,0,0,1,.128-1.4,20.874,20.874,0,0,0,4.451,1.4h8.613c-.4-.261-.856-.588-1.4-.966a5.843,5.843,0,0,1,.873-3.718c-4.674-.3-8.994-.269-12.616,1.661-.4-3.907,1.317-9.01,2.593-12.088,1.218-2.941,4.206-7.417,6.074-8.567l7.488,9.773c1.176-1.825,1-3.044,3.923-3.051.914.476,1.372.62,1.854,1.672.518,1.13.209,1.556.779,2.267a12.151,12.151,0,0,1,6.892-2.713c-1.452-2.055-1.988-1.4-1.133-4.8,1.356-.841,2.107-1.434,3.811-.426,3.287,1.986.078,5.025-.077,5.311,4.225.529,4.512,1.19,7.489,2.981.1-3.547.545-4.128,4.264-3.9,2.813,4.246,1.106,4.515-2.659,5.649,1.726,2.623,2.52,3.685,2.957,7.637,1.31-.873,1.224-2.04,3.423-1.833a2.721,2.721,0,0,1,2.529,2.724,2.773,2.773,0,0,1-1.074,2.387Zm-10.3-12.96c.7-1.214,2.948-3.421,4.067-4.828,1.737-2.185,2.386-2.5,3.288-5.476,2.339,1.315,5.033,6.461,6.09,8.782a24.215,24.215,0,0,1,2.311,11.361c-3.71-1.88-8.071-1.644-12.28-1.706l-.8-2.417a23.51,23.51,0,0,0-2.679-5.716m-.123,12.96h-1.538c.023-.064.047-.128.071-.188.362-.9.042-.416.543-1.018a3.342,3.342,0,0,0,.924,1.207m-28.272,0h-1.206a11.143,11.143,0,0,0,1.031-.96c.058.345.117.664.175.96m11.006-20.528c-4.246,1.114-5.118,1.969-8.5,3.267-2.965-4.461-7.85-6.314-9.969-8.072,4.928-4.058,11.5-7.785,20.272-7.9-1.852,4.4-1.734,7.529-1.806,12.7m5.345.076c-.23-4.538-.023-9.362-1.826-12.657,7.321-.588,16.574,4.723,20.067,8.194-2.42,1.961-.9-.813-7.8,5.843a12.5,12.5,0,0,0-2.073,2.259,36.864,36.864,0,0,0-4.145-2.288c-1.367-.544-3.092-.888-4.223-1.351" transform="translate(-36.266 -10.582)" fill="#00a1ed"/>
    <path id="Path_73" data-name="Path 73" d="M130.54,69.475c-.029.08-.06.156-.092.233h7.545c.023-.065.047-.128.071-.188.362-.9.042-.416.543-1.018a3.347,3.347,0,0,0,.924,1.207h3.394A2.772,2.772,0,0,0,144,67.32a2.72,2.72,0,0,0-2.528-2.724c-2.2-.207-2.114.96-3.424,1.834-.437-3.952-1.231-5.014-2.957-7.637,3.765-1.133,5.471-1.4,2.659-5.649-3.718-.227-4.165.354-4.264,3.9-2.977-1.791-3.263-2.452-7.489-2.981.156-.286,3.364-3.325.077-5.311-1.7-1.008-2.455-.415-3.811.426-.855,3.4-.319,2.743,1.133,4.8a12.152,12.152,0,0,0-6.892,2.713c-.571-.711-.261-1.136-.779-2.267-.482-1.052-.94-1.2-1.854-1.672-2.928.007-2.748,1.225-3.923,3.051l-7.489-9.773c-1.868,1.151-4.856,5.626-6.074,8.567-1.276,3.078-2.99,8.182-2.593,12.088,3.622-1.931,7.943-1.959,12.616-1.661a5.843,5.843,0,0,0-.873,3.718c.546.377,1,.7,1.4.966h3.115a11.143,11.143,0,0,0,1.031-.96c.058.345.117.663.175.96h7.524a6.621,6.621,0,0,1,.017-4.035c2.211-7.558,14.653-4.118,11.74,3.8m-24.13-4.451c.875-4.292,1.85-5.457,3.508-8.723,2.03,1.2.551,2.085,4.45,2.051-1.357,2.736-2.787,3.746-3.133,7.817-2.013-1.75-1.87-1.752-4.824-1.145m-9.075-2.662c.134-3.105,2.66-8.195,4.248-10.425,1.674.571,4.06,3.434,5.352,4.842l-2.25,5.655Z" transform="translate(-37.855 -18.589)" fill="#004973"/>
    <path id="Path_74" data-name="Path 74" d="M85.066,58.939a37.023,37.023,0,0,1,.209-6.8c3.84-31.353,43.967-40.8,61.924-18.053,4.6,5.827,9.193,14.75,8.311,24.851h2.072a36.73,36.73,0,0,0-.256-6.617c-2.622-20.276-20.568-35.069-41.018-32.709C95.891,21.969,81.38,39.43,82.777,58.939Z" transform="translate(-33.392 -7.821)" fill="#ffc48b"/>
    <path id="Path_75" data-name="Path 75" d="M88.561,60.411c-1.147-18.8,12.523-33.184,29.5-35.24,19.966-2.42,34.716,12.7,36.8,29.283a30.1,30.1,0,0,1,.123,5.957h2.092c.882-10.1-3.71-19.024-8.311-24.851-17.956-22.743-58.083-13.3-61.923,18.053a36.919,36.919,0,0,0-.209,6.8Z" transform="translate(-34.958 -9.293)" fill="#004973"/>
    <path id="Path_76" data-name="Path 76" d="M98.335,84.8a20.84,20.84,0,0,1-4.451-1.4,8.674,8.674,0,0,0-.128,1.4Z" transform="translate(-37.863 -33.683)" fill="#004973"/>
    <path id="Path_77" data-name="Path 77" d="M157.26,43.373l-5.769-2.245-.169-4.407.048-3.074c3.363.562,8.486,2.576,10.6,4.39-1.279,1.938-3.411,2.905-4.713,5.336m-7.938-.538c1.131.463,2.856.807,4.223,1.351a36.865,36.865,0,0,1,4.145,2.288,12.5,12.5,0,0,1,2.073-2.259c6.9-6.656,5.38-3.883,7.8-5.843-3.493-3.47-12.746-8.781-20.067-8.194,1.8,3.3,1.6,8.119,1.826,12.657" transform="translate(-59.566 -12.169)" fill="#004973"/>
    <path id="Path_78" data-name="Path 78" d="M178.774,52.125a22.992,22.992,0,0,1,4.375,10.569l-7.373-.008-2.42-5.361Zm-8.011,4.9a23.515,23.515,0,0,1,2.679,5.715l.8,2.417c4.209.062,8.57-.174,12.28,1.706a24.211,24.211,0,0,0-2.31-11.36c-1.058-2.321-3.752-7.467-6.09-8.782-.9,2.972-1.551,3.291-3.288,5.476-1.12,1.406-3.365,3.613-4.067,4.828" transform="translate(-68.962 -18.869)" fill="#004973"/>
    <path id="Path_79" data-name="Path 79" d="M147.3,79.928c2.912-7.92-9.529-11.36-11.741-3.8a6.625,6.625,0,0,0-.017,4.035h11.665c.031-.076.063-.153.092-.232" transform="translate(-54.616 -29.043)" fill="#ffc48b"/>
    <path id="Path_80" data-name="Path 80" d="M115.745,37.8c2.4-1.038,7.336-4.411,10.823-3.938l.024,6.956-5.95,2.6c-2.117-2.506-3.973-3.434-4.9-5.622m13.337,4.912c.072-5.175-.046-8.306,1.806-12.7-8.771.113-15.344,3.84-20.272,7.9,2.119,1.758,7,3.611,9.969,8.072,3.38-1.3,4.252-2.153,8.5-3.267" transform="translate(-44.672 -12.117)" fill="#004973"/>
    <path id="Path_81" data-name="Path 81" d="M193.57,84.859q.069-.644.128-1.312c-2.6.664-4.078,1.058-5.662,1.312Z" transform="translate(-75.938 -33.74)" fill="#004973"/>
    <path id="Path_82" data-name="Path 82" d="M119.221,40.377c.923,2.188,2.779,3.115,4.9,5.622l5.95-2.6-.024-6.956c-3.486-.474-8.423,2.9-10.823,3.938" transform="translate(-48.147 -14.698)" fill="#ffc48b"/>
    <path id="Path_83" data-name="Path 83" d="M99.774,66.364l7.349.072,2.25-5.655c-1.291-1.408-3.678-4.271-5.352-4.842-1.588,2.23-4.114,7.32-4.248,10.425" transform="translate(-40.294 -22.591)" fill="#ffc48b"/>
    <path id="Path_84" data-name="Path 84" d="M175.113,60.983l2.42,5.361,7.372.008a22.992,22.992,0,0,0-4.374-10.569Z" transform="translate(-70.719 -22.528)" fill="#ffc48b"/>
    <path id="Path_85" data-name="Path 85" d="M159.851,45.755c1.3-2.431,3.433-3.4,4.713-5.335-2.117-1.815-7.24-3.828-10.6-4.39l-.048,3.074.17,4.407Z" transform="translate(-62.157 -14.551)" fill="#ffc48b"/>
    <path id="Path_86" data-name="Path 86" d="M115,71.981c2.955-.607,2.811-.605,4.824,1.145.346-4.072,1.776-5.082,3.133-7.817-3.9.034-2.42-.848-4.45-2.052-1.657,3.267-2.633,4.432-3.507,8.724" transform="translate(-46.441 -25.546)" fill="#00a1ed"/>
    <path id="Path_87" data-name="Path 87" d="M143.534,55.543a3.3,3.3,0,1,0-3.3-3.3,3.3,3.3,0,0,0,3.3,3.3" transform="translate(-56.635 -19.768)" fill="#004973"/>
    <path id="Path_88" data-name="Path 88" d="M163.371,63.937a3.3,3.3,0,1,0-3.3-3.3,3.3,3.3,0,0,0,3.3,3.3" transform="translate(-64.646 -23.157)" fill="#004973"/>
    <path id="Path_89" data-name="Path 89" d="M123.86,63.61a3.3,3.3,0,1,0-3.3-3.3,3.3,3.3,0,0,0,3.3,3.3" transform="translate(-48.689 -23.025)" fill="#004973"/>
    <path id="Path_90" data-name="Path 90" d="M118.673,81.934a3.3,3.3,0,1,0-4.666,0Z" transform="translate(-45.652 -30.816)" fill="#004973"/>
    <path id="Path_91" data-name="Path 91" d="M172.826,81.934a3.3,3.3,0,1,0-4.665,0Z" transform="translate(-67.522 -30.816)" fill="#004973"/>
    <path id="Path_92" data-name="Path 92" d="M5.012,199.161v5.792q0,.985.007,1.759a11.064,11.064,0,0,0,.062,1.212,1.522,1.522,0,0,0,.123.507.48.48,0,0,0,.411.246,3.1,3.1,0,0,0,.335.041c.123.01.217.014.281.014s.11.027.11.082c0,.073-.073.11-.219.11-.191,0-.383,0-.575-.007l-.528-.014-.4-.014-.185-.007-.185.007-.363.014-.424.014c-.146,0-.269.007-.37.007-.146,0-.219-.037-.219-.11,0-.054.036-.082.11-.082a1.585,1.585,0,0,0,.205-.014,1.334,1.334,0,0,0,.206-.041.36.36,0,0,0,.28-.246,2.466,2.466,0,0,0,.117-.507,11.245,11.245,0,0,0,.061-1.212q.006-.773.007-1.759v-5.792l-2.026.027a4.656,4.656,0,0,0-.541.027,2.407,2.407,0,0,0-.39.075.789.789,0,0,0-.466.335q-.109.178-.157.268a1.388,1.388,0,0,0-.075.157c-.037.091-.082.137-.137.137S0,200.146,0,200.065a2.025,2.025,0,0,1,.041-.268q.041-.212.1-.458c.036-.165.07-.315.1-.452s.052-.219.062-.246c.018-.045.039-.1.061-.164s.048-.1.075-.1a.479.479,0,0,1,.2.069,1.16,1.16,0,0,0,.4.1c.2.018.411.034.63.048s.37.02.451.02H7.258c.219,0,.408-.007.568-.02s.294-.03.4-.048.183-.035.247-.048a.7.7,0,0,1,.137-.02c.036,0,.057.015.061.048a.9.9,0,0,1,.007.116c0,.1,0,.228-.007.383s-.01.311-.014.466-.01.294-.014.418-.007.2-.007.239c0,.119-.032.178-.1.178a.077.077,0,0,1-.076-.041.673.673,0,0,1-.034-.191l-.014-.151a.678.678,0,0,0-.1-.288.65.65,0,0,0-.268-.232,1.883,1.883,0,0,0-.506-.158,5.355,5.355,0,0,0-.815-.075Z" transform="translate(0 -80.116)" fill="#fff"/>
    <path id="Path_93" data-name="Path 93" d="M26.849,202.673v2.41q0,.986.007,1.759a11.065,11.065,0,0,0,.062,1.212,1.523,1.523,0,0,0,.123.507.48.48,0,0,0,.411.246,3.106,3.106,0,0,0,.336.041c.123.01.217.014.281.014s.11.027.11.082c0,.073-.073.11-.219.11-.191,0-.383,0-.575-.007l-.528-.014-.4-.014-.185-.007-.185.007-.363.014-.424.014c-.146,0-.269.007-.37.007-.146,0-.219-.036-.219-.11,0-.055.036-.082.11-.082a1.585,1.585,0,0,0,.205-.014,1.332,1.332,0,0,0,.206-.041.36.36,0,0,0,.28-.246,2.466,2.466,0,0,0,.117-.507,11.247,11.247,0,0,0,.061-1.212q.006-.774.007-1.759v-1.438a.073.073,0,0,0-.082-.082H19.811a.073.073,0,0,0-.082.082v1.438q0,.986.007,1.759a11.064,11.064,0,0,0,.062,1.212,1.523,1.523,0,0,0,.123.507.48.48,0,0,0,.411.246,3.106,3.106,0,0,0,.336.041c.123.01.217.014.281.014s.11.027.11.082c0,.073-.073.11-.219.11q-.288,0-.575-.007l-.528-.014-.4-.014-.185-.007-.185.007-.363.014-.424.014c-.146,0-.269.007-.37.007-.146,0-.219-.036-.219-.11,0-.055.036-.082.11-.082a1.585,1.585,0,0,0,.205-.014,1.318,1.318,0,0,0,.206-.041.36.36,0,0,0,.28-.246,2.466,2.466,0,0,0,.117-.507,11.246,11.246,0,0,0,.061-1.212q.007-.774.007-1.759v-4.526c0-.205,0-.37-.007-.492s-.011-.24-.02-.349a1.223,1.223,0,0,0-.137-.534.653.653,0,0,0-.452-.247.9.9,0,0,0-.226-.034c-.1,0-.176-.007-.24-.007s-.11-.027-.11-.083c0-.073.073-.109.219-.109s.32,0,.493.007l.486.014.383.013.185.007.185-.007.363-.013.424-.014c.146,0,.269-.007.37-.007.146,0,.219.036.219.109,0,.055-.036.083-.109.083-.046,0-.094,0-.144.007a1.737,1.737,0,0,0-.2.034.517.517,0,0,0-.377.24,1.347,1.347,0,0,0-.13.541c-.01.11-.016.226-.021.349s-.007.287-.007.492v2.4a.073.073,0,0,0,.082.082h5.806a.073.073,0,0,0,.082-.082v-2.4c0-.205,0-.37-.007-.492s-.011-.24-.021-.349a1.215,1.215,0,0,0-.137-.534.655.655,0,0,0-.452-.247.906.906,0,0,0-.226-.034c-.1,0-.176-.007-.24-.007s-.11-.027-.11-.083c0-.073.073-.109.219-.109s.32,0,.494.007l.486.014.383.013.185.007.185-.007.363-.013.424-.014c.146,0,.269-.007.37-.007.146,0,.219.036.219.109,0,.055-.036.083-.109.083-.046,0-.094,0-.144.007a1.737,1.737,0,0,0-.2.034.517.517,0,0,0-.377.24,1.347,1.347,0,0,0-.13.541c-.01.11-.016.226-.021.349s-.007.287-.007.492v2.116Z" transform="translate(-7.022 -80.246)" fill="#fff"/>
    <path id="Path_94" data-name="Path 94" d="M40.629,205.009v-4.526c0-.205,0-.37-.007-.492s-.012-.24-.021-.349a1.224,1.224,0,0,0-.137-.534.651.651,0,0,0-.452-.247.871.871,0,0,0-.227-.035c-.1,0-.175-.007-.239-.007s-.109-.027-.109-.083c0-.073.072-.109.219-.109h.493q.26,0,.492.014l.562.027h1.486c.37,0,.717,0,1.041-.007l.609-.007a4.614,4.614,0,0,0,.588-.068.306.306,0,0,0,.1-.042.174.174,0,0,1,.1-.027c.036,0,.055.042.055.123a.892.892,0,0,1-.041.212,2.591,2.591,0,0,0-.069.431c0,.037,0,.1-.006.178s-.012.171-.021.268-.016.187-.02.273a1.138,1.138,0,0,1-.021.185.738.738,0,0,1-.035.1.066.066,0,0,1-.061.048c-.074,0-.111-.059-.111-.178,0-.046,0-.119-.013-.219a.878.878,0,0,0-.069-.274.629.629,0,0,0-.246-.281,1.958,1.958,0,0,0-.726-.185,3.437,3.437,0,0,0-.37-.02l-.6-.014c-.209,0-.4-.007-.582-.007h-.322c-.054,0-.082.046-.082.137v3.779c0,.091.027.137.082.137h1.034q.363,0,.692-.007c.219,0,.37-.011.452-.02.165-.018.3-.036.4-.055a.421.421,0,0,0,.247-.137c.1-.118.168-.178.205-.178s.069.037.069.11a1.371,1.371,0,0,1-.041.246,3.871,3.871,0,0,0-.069.52c-.01.073-.017.153-.021.239s-.01.173-.014.261-.009.165-.013.232-.008.117-.008.144a1.155,1.155,0,0,1-.013.171c-.01.059-.037.089-.082.089-.064,0-.1-.041-.1-.123s0-.144-.008-.212a1.084,1.084,0,0,0-.048-.24.713.713,0,0,0-.177-.294.879.879,0,0,0-.534-.184q-.137-.014-.432-.027t-.6-.02l-.575-.014q-.266-.007-.349-.007a.085.085,0,0,0-.1.1v3.536a2.487,2.487,0,0,0,.076.574.6.6,0,0,0,.232.341,1.042,1.042,0,0,0,.472.165,6.268,6.268,0,0,0,.808.041c.182,0,.4-.007.658-.02a2.086,2.086,0,0,0,.658-.131.816.816,0,0,0,.411-.335,1.883,1.883,0,0,0,.206-.65c.026-.138.067-.206.122-.206a.069.069,0,0,1,.076.068c0,.046.006.092.006.138,0,.027-.006.1-.02.212s-.03.243-.048.384-.036.281-.055.418a3.011,3.011,0,0,1-.055.318.926.926,0,0,1-.082.211.251.251,0,0,1-.123.1.6.6,0,0,1-.205.042c-.082,0-.191.007-.329.007q-.78,0-1.348-.013t-.966-.027c-.265-.018-.484-.03-.656-.034s-.311-.007-.411-.007h-.178q-.15,0-.37.014c-.137,0-.278,0-.424.014s-.269.014-.37.014c-.146,0-.219-.036-.219-.11,0-.055.036-.082.11-.082a1.6,1.6,0,0,0,.206-.014,1.3,1.3,0,0,0,.2-.041.36.36,0,0,0,.281-.246,2.469,2.469,0,0,0,.116-.507,11.064,11.064,0,0,0,.062-1.212q.006-.774.007-1.759" transform="translate(-15.927 -80.171)" fill="#fff"/>
    <path id="Path_95" data-name="Path 95" d="M62.1,205.083v-4.526c0-.205,0-.37-.007-.492s-.012-.24-.021-.349a1.224,1.224,0,0,0-.137-.534.652.652,0,0,0-.452-.247.866.866,0,0,0-.226-.035c-.1,0-.176-.007-.239-.007s-.11-.027-.11-.083c0-.073.073-.109.219-.109s.317,0,.486.007l.479.014c.15,0,.278.009.383.014l.2.007q.233,0,.739-.02t.986-.021a5.271,5.271,0,0,1,1.089.1,4.563,4.563,0,0,1,.746.219,1.979,1.979,0,0,1,.466.253c.109.088.191.158.246.212a2.474,2.474,0,0,1,.458.65,2.08,2.08,0,0,1,.226.979,3.381,3.381,0,0,1-.253,1.328,3.042,3.042,0,0,1-.7,1.034,3.138,3.138,0,0,1-1.068.664,3.759,3.759,0,0,1-1.342.233h-.144a.584.584,0,0,1-.144-.014.254.254,0,0,1-.1-.02.075.075,0,0,1-.048-.075.1.1,0,0,1,.076-.1,1.385,1.385,0,0,1,.294-.02,2.542,2.542,0,0,0,.931-.171,2.244,2.244,0,0,0,1.253-1.178,2.092,2.092,0,0,0,.185-.883c0-.11-.007-.246-.02-.411a3.171,3.171,0,0,0-.1-.534,3.058,3.058,0,0,0-.225-.588,2.435,2.435,0,0,0-.979-.993,2.373,2.373,0,0,0-.534-.206,1.954,1.954,0,0,0-.458-.062h-.328a2.6,2.6,0,0,0-.336.021.978.978,0,0,0-.253.061c-.073.027-.11.114-.11.261v5.628q0,.986.007,1.759a10.915,10.915,0,0,0,.062,1.212,1.523,1.523,0,0,0,.123.507.48.48,0,0,0,.411.246,3.106,3.106,0,0,0,.336.041c.123.01.216.014.281.014s.109.027.109.082c0,.073-.073.11-.219.11-.192,0-.383,0-.575-.007l-.527-.014-.4-.013-.185-.007-.165.007-.356.013-.424.014q-.219.007-.37.007c-.146,0-.219-.036-.219-.11,0-.055.036-.082.11-.082a1.594,1.594,0,0,0,.206-.014,1.311,1.311,0,0,0,.205-.041.36.36,0,0,0,.281-.246,2.47,2.47,0,0,0,.116-.507,11.377,11.377,0,0,0,.062-1.212q.006-.774.007-1.759" transform="translate(-24.6 -80.246)" fill="#fff"/>
    <path id="Path_96" data-name="Path 96" d="M76.85,205.083v-4.526c0-.205,0-.37-.007-.492s-.011-.24-.02-.349a1.223,1.223,0,0,0-.137-.534.653.653,0,0,0-.452-.247.875.875,0,0,0-.226-.034c-.1,0-.176-.007-.24-.007s-.109-.027-.109-.083c0-.073.073-.109.219-.109s.32,0,.493.007l.486.014c.151,0,.278.008.383.013l.185.007c.036,0,.121,0,.253-.007l.452-.013.5-.014c.165,0,.3-.007.411-.007a8.355,8.355,0,0,1,1.307.1,2.405,2.405,0,0,1,1.486.767,2.4,2.4,0,0,1,.308.4,2.634,2.634,0,0,1,.247.534,2.038,2.038,0,0,1,.1.657,3.55,3.55,0,0,1-.37,1.54,5.6,5.6,0,0,1-1.287,1.623l1.547,1.972q.7.89,1.3,1.533a2.823,2.823,0,0,0,1.67.986c.128.018.237.03.329.035s.159.007.205.007c.082,0,.123.027.123.082a.087.087,0,0,1-.069.089,1.066,1.066,0,0,1-.26.021H84.71a5.456,5.456,0,0,1-.89-.055,1.728,1.728,0,0,1-.575-.205,2.866,2.866,0,0,1-.849-.733q-.41-.5-1-1.281-.22-.287-.439-.588l-.417-.575c-.132-.182-.256-.349-.37-.5s-.2-.272-.266-.363a.249.249,0,0,0-.178-.082l-1.684-.027c-.064,0-.1.037-.1.11v.329q0,.985.007,1.759a11.091,11.091,0,0,0,.061,1.212,1.522,1.522,0,0,0,.123.507.479.479,0,0,0,.411.246,3.243,3.243,0,0,0,.336.041c.123.01.216.014.28.014s.11.027.11.082c0,.073-.073.11-.219.11-.192,0-.383,0-.575-.007l-.527-.014-.4-.014-.185-.007q-.288.013-.494.021l-.424.014c-.147,0-.269.007-.37.007-.146,0-.219-.037-.219-.11,0-.055.036-.082.11-.082a1.579,1.579,0,0,0,.205-.014,1.39,1.39,0,0,0,.206-.041.361.361,0,0,0,.281-.246,2.469,2.469,0,0,0,.116-.507,11.244,11.244,0,0,0,.061-1.212q.007-.774.007-1.759m1.1-5.7v4.478a.178.178,0,0,0,.1.165,1.6,1.6,0,0,0,.568.157,5.943,5.943,0,0,0,.87.061A2.994,2.994,0,0,0,80,204.2a1.241,1.241,0,0,0,.507-.212,1.826,1.826,0,0,0,.6-.788,3.254,3.254,0,0,0,.24-1.321,2.97,2.97,0,0,0-.63-2.013,2.181,2.181,0,0,0-1.739-.726,5.235,5.235,0,0,0-.562.027,2.987,2.987,0,0,0-.356.055.159.159,0,0,0-.11.164" transform="translate(-30.555 -80.246)" fill="#fff"/>
    <path id="Path_97" data-name="Path 97" d="M95.43,202.673v2.41q0,.986.007,1.759a11.067,11.067,0,0,0,.062,1.212,1.523,1.523,0,0,0,.123.507.48.48,0,0,0,.411.246,3.106,3.106,0,0,0,.336.041c.123.01.217.014.281.014s.11.027.11.082c0,.073-.073.11-.219.11-.191,0-.383,0-.575-.007l-.528-.014-.4-.014-.185-.007-.185.007-.363.014-.424.014c-.146,0-.269.007-.37.007-.146,0-.219-.036-.219-.11,0-.055.036-.082.11-.082a1.585,1.585,0,0,0,.205-.014,1.332,1.332,0,0,0,.206-.041.36.36,0,0,0,.28-.246,2.466,2.466,0,0,0,.117-.507,11.244,11.244,0,0,0,.061-1.212q.006-.774.007-1.759v-4.526c0-.205,0-.37-.007-.492s-.011-.24-.021-.349q-.04-.671-.465-.767a1.7,1.7,0,0,0-.233-.041,1.912,1.912,0,0,0-.192-.014c-.073,0-.109-.027-.109-.083,0-.073.073-.109.219-.109q.165,0,.4.007l.438.014.363.013.185.007.185-.007.363-.013.424-.014c.146,0,.269-.007.37-.007.146,0,.219.036.219.109,0,.055-.036.083-.109.083-.046,0-.094,0-.144.007a1.738,1.738,0,0,0-.2.034.517.517,0,0,0-.377.24,1.347,1.347,0,0,0-.13.541c-.01.11-.016.226-.021.349s-.007.287-.007.492v2.116Z" transform="translate(-37.66 -80.246)" fill="#fff"/>
    <path id="Path_98" data-name="Path 98" d="M104.274,205.082v-4.526c0-.2,0-.37-.007-.492s-.011-.24-.021-.349a1.215,1.215,0,0,0-.137-.534.654.654,0,0,0-.452-.247.874.874,0,0,0-.226-.035c-.1,0-.176-.007-.24-.007s-.11-.027-.11-.082c0-.073.073-.11.219-.11s.32,0,.494.007l.486.014c.15,0,.278.009.383.014l.185.007.24-.007.438-.014.554-.014q.3-.007.616-.007.506,0,1.2.007a8.58,8.58,0,0,1,1.444.144,6.75,6.75,0,0,1,1.492.459,4.288,4.288,0,0,1,1.356.951,5.355,5.355,0,0,1,.5.616,4.316,4.316,0,0,1,.424.774,5.079,5.079,0,0,1,.294.952,5.541,5.541,0,0,1,.109,1.136,5.841,5.841,0,0,1-.452,2.28,4.984,4.984,0,0,1-1.595,2.088,4.512,4.512,0,0,1-.856.514,5.958,5.958,0,0,1-1.178.4,6.849,6.849,0,0,1-1.547.157q-.438,0-.951-.027t-.952-.054q-.452-.028-.767-.055t-.37-.027h-.178c-.1,0-.224,0-.37.014s-.278,0-.424.014-.269.014-.37.014c-.146,0-.219-.036-.219-.11,0-.055.036-.082.11-.082a1.7,1.7,0,0,0,.205-.013,1.41,1.41,0,0,0,.206-.042.359.359,0,0,0,.28-.246,2.46,2.46,0,0,0,.117-.506,11.26,11.26,0,0,0,.061-1.213q.006-.773.007-1.759m1.151-2.629v2.739q0,.493.007.89c0,.265.009.488.014.671s.007.306.007.37c0,.082,0,.176.014.281s.018.207.027.308a2.093,2.093,0,0,0,.041.274.474.474,0,0,0,.068.178.8.8,0,0,0,.212.191,1.605,1.605,0,0,0,.411.178,3.916,3.916,0,0,0,.685.13,9.082,9.082,0,0,0,1.02.048,4.906,4.906,0,0,0,1.8-.329,4.187,4.187,0,0,0,1.458-.945,2.82,2.82,0,0,0,.466-.63,4.758,4.758,0,0,0,.349-.8,5.3,5.3,0,0,0,.213-.9,6.53,6.53,0,0,0,.068-.945,5.3,5.3,0,0,0-.123-1.191,4.986,4.986,0,0,0-.321-.966,4.5,4.5,0,0,0-.432-.753,5.565,5.565,0,0,0-.438-.541,4.51,4.51,0,0,0-1.013-.815,5,5,0,0,0-1.1-.472,5.759,5.759,0,0,0-1.157-.213c-.4-.031-.8-.048-1.211-.048-.074,0-.153,0-.24.007s-.176.012-.267.02a2.409,2.409,0,0,0-.239.035,1.308,1.308,0,0,0-.144.034.268.268,0,0,0-.164.274q0,.179-.007.507c0,.219-.007.463-.007.733v1.677Z" transform="translate(-41.63 -80.245)" fill="#fff"/>
    <path id="Path_99" data-name="Path 99" d="M125.337,205.009v-4.526c0-.205,0-.37-.007-.492s-.012-.24-.021-.349a1.224,1.224,0,0,0-.137-.534.652.652,0,0,0-.452-.247.867.867,0,0,0-.226-.035c-.1,0-.176-.007-.239-.007s-.11-.027-.11-.083c0-.073.073-.109.219-.109h.493q.26,0,.493.014l.562.027H127.4q.554,0,1.041-.007l.609-.007a4.628,4.628,0,0,0,.588-.068.312.312,0,0,0,.1-.042.172.172,0,0,1,.1-.027c.036,0,.055.042.055.123a.862.862,0,0,1-.041.212,2.6,2.6,0,0,0-.069.431c0,.037,0,.1-.007.178s-.012.171-.021.268-.016.187-.02.273a1.135,1.135,0,0,1-.021.185.733.733,0,0,1-.034.1.066.066,0,0,1-.061.048c-.074,0-.11-.059-.11-.178,0-.046,0-.119-.014-.219a.862.862,0,0,0-.068-.274.627.627,0,0,0-.247-.281,1.954,1.954,0,0,0-.726-.185,3.437,3.437,0,0,0-.37-.02l-.6-.014q-.315-.006-.582-.007h-.322c-.054,0-.082.046-.082.137v3.779c0,.091.027.137.082.137H127.6q.363,0,.692-.007c.219,0,.37-.011.452-.02.165-.018.3-.036.4-.055a.417.417,0,0,0,.247-.137c.1-.118.169-.178.206-.178s.068.037.068.11a1.317,1.317,0,0,1-.041.246,3.891,3.891,0,0,0-.068.52c-.01.073-.017.153-.021.239s-.01.173-.014.261-.01.165-.014.232-.007.117-.007.144a1.083,1.083,0,0,1-.014.171c-.009.059-.036.089-.082.089-.064,0-.1-.041-.1-.123s0-.144-.007-.212a1.082,1.082,0,0,0-.048-.24.708.708,0,0,0-.178-.294.875.875,0,0,0-.534-.184c-.091-.01-.235-.018-.432-.027s-.4-.016-.6-.02l-.575-.014c-.178,0-.294-.007-.349-.007a.085.085,0,0,0-.1.1v3.536a2.491,2.491,0,0,0,.075.574.606.606,0,0,0,.232.341,1.047,1.047,0,0,0,.473.165,6.268,6.268,0,0,0,.808.041c.182,0,.4-.007.657-.02a2.083,2.083,0,0,0,.658-.131.817.817,0,0,0,.411-.335,1.859,1.859,0,0,0,.206-.65c.027-.138.068-.206.123-.206a.068.068,0,0,1,.076.068c0,.046.007.092.007.138,0,.027-.007.1-.02.212s-.03.243-.048.384-.036.281-.055.418a3.18,3.18,0,0,1-.055.318.955.955,0,0,1-.082.211.256.256,0,0,1-.123.1.608.608,0,0,1-.206.042c-.082,0-.191.007-.328.007q-.781,0-1.349-.013t-.965-.027c-.265-.018-.484-.03-.657-.034s-.311-.007-.411-.007h-.178q-.15,0-.37.014c-.137,0-.278,0-.424.014s-.269.014-.37.014c-.146,0-.219-.036-.219-.11,0-.055.036-.082.11-.082a1.591,1.591,0,0,0,.206-.014,1.312,1.312,0,0,0,.205-.041.36.36,0,0,0,.281-.246,2.467,2.467,0,0,0,.116-.507,11.376,11.376,0,0,0,.062-1.212q.006-.774.007-1.759" transform="translate(-50.136 -80.171)" fill="#fff"/>
    <path id="Path_100" data-name="Path 100" d="M145,203.734a5.383,5.383,0,0,1,.137-1.164,5.573,5.573,0,0,1,.424-1.211,6.023,6.023,0,0,1,.719-1.136,4.662,4.662,0,0,1,1.034-.952,5.125,5.125,0,0,1,1.369-.65,5.727,5.727,0,0,1,1.712-.24,6.23,6.23,0,0,1,2.136.356,4.958,4.958,0,0,1,1.706,1.02,4.714,4.714,0,0,1,1.129,1.616,5.358,5.358,0,0,1,.411,2.143,6.015,6.015,0,0,1-.391,2.171,5.387,5.387,0,0,1-1.1,1.78,5.188,5.188,0,0,1-1.726,1.2,5.522,5.522,0,0,1-2.246.445,5.438,5.438,0,0,1-2.416-.493,4.877,4.877,0,0,1-1.65-1.273,5.139,5.139,0,0,1-.945-1.732,6.207,6.207,0,0,1-.3-1.883m1.3-.383a6.6,6.6,0,0,0,.335,2.163,4.944,4.944,0,0,0,.931,1.657,4.139,4.139,0,0,0,1.39,1.055,4.041,4.041,0,0,0,1.725.37,4.428,4.428,0,0,0,1.109-.171,3.185,3.185,0,0,0,1.239-.678,4.006,4.006,0,0,0,1.013-1.431,5.924,5.924,0,0,0,.418-2.417,6.265,6.265,0,0,0-.349-2.177,4.836,4.836,0,0,0-.925-1.582,3.873,3.873,0,0,0-2.889-1.294,4.438,4.438,0,0,0-1.6.281,3.373,3.373,0,0,0-1.266.849,4,4,0,0,0-.835,1.411,5.827,5.827,0,0,0-.3,1.965" transform="translate(-58.558 -80.116)" fill="#fff"/>
    <path id="Path_101" data-name="Path 101" d="M167.14,205.009v-4.526c0-.205,0-.37-.007-.492s-.011-.24-.02-.349a1.215,1.215,0,0,0-.137-.534.649.649,0,0,0-.452-.247.871.871,0,0,0-.226-.035c-.1,0-.176-.007-.24-.007s-.11-.027-.11-.083c0-.073.073-.109.219-.109h.492q.26,0,.493.014l.562.014h3.368c.128-.009.244-.016.349-.02a1.128,1.128,0,0,0,.253-.035.565.565,0,0,0,.11-.055.149.149,0,0,1,.082-.027c.055,0,.082.042.082.123a.862.862,0,0,1-.041.212,2.6,2.6,0,0,0-.069.431c0,.037,0,.1-.007.178s-.012.171-.021.268-.016.187-.02.273a1.152,1.152,0,0,1-.02.185.664.664,0,0,1-.034.1.075.075,0,0,1-.075.048c-.064,0-.1-.055-.1-.164a1.436,1.436,0,0,0-.027-.233,1.067,1.067,0,0,0-.1-.287.788.788,0,0,0-.3-.281,1.28,1.28,0,0,0-.63-.157l-2.109-.041c-.082,0-.123.051-.123.151v3.792c0,.083.032.124.1.124l1.753-.014h.321c.1,0,.194,0,.295-.014a2.489,2.489,0,0,0,.39-.069.435.435,0,0,0,.24-.178c.027-.036.052-.068.075-.1a.1.1,0,0,1,.076-.041q.068,0,.068.109a1.261,1.261,0,0,1-.041.244,3.69,3.69,0,0,0-.069.51c-.01.073-.017.155-.02.246l-.014.274c0,.091-.01.174-.013.246s-.007.123-.007.151a1.038,1.038,0,0,1-.014.178c-.008.055-.036.083-.082.083-.064,0-.1-.042-.1-.124s-.019-.153-.027-.24a1.224,1.224,0,0,0-.055-.253.775.775,0,0,0-.227-.3.9.9,0,0,0-.486-.192c-.082-.008-.226-.016-.431-.02l-.644-.013c-.224,0-.432-.007-.623-.007h-.37c-.064,0-.1.041-.1.123v1.164q0,.986.007,1.759a11.068,11.068,0,0,0,.062,1.212,1.522,1.522,0,0,0,.123.507.478.478,0,0,0,.41.246,3.129,3.129,0,0,0,.336.041c.123.01.217.014.281.014s.109.027.109.082c0,.073-.073.11-.219.11-.191,0-.383,0-.575-.007l-.528-.014-.4-.013-.185-.007-.185.007-.362.013-.424.014c-.147,0-.269.007-.37.007-.146,0-.219-.036-.219-.11q0-.082.109-.082a1.585,1.585,0,0,0,.206-.014,1.334,1.334,0,0,0,.206-.041.36.36,0,0,0,.28-.246,2.468,2.468,0,0,0,.117-.507,11.4,11.4,0,0,0,.061-1.212q.007-.774.007-1.759" transform="translate(-67.018 -80.171)" fill="#fff"/>
    <path id="Path_102" data-name="Path 102" d="M186.39,203.734a5.422,5.422,0,0,1,.137-1.164,5.545,5.545,0,0,1,.425-1.211,5.988,5.988,0,0,1,.718-1.136,4.661,4.661,0,0,1,1.034-.952,5.125,5.125,0,0,1,1.369-.65,5.726,5.726,0,0,1,1.712-.24,6.23,6.23,0,0,1,2.136.356,4.958,4.958,0,0,1,1.706,1.02,4.714,4.714,0,0,1,1.129,1.616,5.358,5.358,0,0,1,.411,2.143,6.015,6.015,0,0,1-.391,2.171,5.386,5.386,0,0,1-1.1,1.78,5.189,5.189,0,0,1-1.726,1.2,5.522,5.522,0,0,1-2.246.445,5.438,5.438,0,0,1-2.416-.493,4.877,4.877,0,0,1-1.65-1.273,5.128,5.128,0,0,1-.945-1.732,6.209,6.209,0,0,1-.3-1.883m1.3-.383a6.6,6.6,0,0,0,.335,2.163,4.943,4.943,0,0,0,.931,1.657,4.139,4.139,0,0,0,1.39,1.055,4.041,4.041,0,0,0,1.725.37,4.428,4.428,0,0,0,1.109-.171,3.186,3.186,0,0,0,1.239-.678,4.006,4.006,0,0,0,1.013-1.431,5.924,5.924,0,0,0,.418-2.417,6.264,6.264,0,0,0-.349-2.177,4.836,4.836,0,0,0-.925-1.582,3.873,3.873,0,0,0-2.889-1.294,4.438,4.438,0,0,0-1.6.281,3.373,3.373,0,0,0-1.266.849,4,4,0,0,0-.835,1.411,5.827,5.827,0,0,0-.3,1.965" transform="translate(-75.273 -80.116)" fill="#fff"/>
    <path id="Path_103" data-name="Path 103" d="M208.529,205.082v-4.526c0-.2,0-.37-.007-.492s-.012-.24-.021-.349a1.215,1.215,0,0,0-.137-.534.651.651,0,0,0-.452-.247.87.87,0,0,0-.226-.035c-.1,0-.176-.007-.24-.007s-.11-.027-.11-.082c0-.073.073-.11.219-.11s.32,0,.493.007l.486.014c.151,0,.278.009.384.014l.184.007c.037,0,.116,0,.24-.007l.438-.014.554-.014q.3-.007.616-.007.506,0,1.2.007a8.573,8.573,0,0,1,1.444.144,6.764,6.764,0,0,1,1.493.459,4.3,4.3,0,0,1,1.356.951,5.418,5.418,0,0,1,.5.616,4.35,4.35,0,0,1,.424.774,5.081,5.081,0,0,1,.3.952,5.54,5.54,0,0,1,.109,1.136,5.8,5.8,0,0,1-.123,1.219,5.884,5.884,0,0,1-.328,1.061,4.975,4.975,0,0,1-1.6,2.088,4.493,4.493,0,0,1-.856.514,5.953,5.953,0,0,1-1.177.4,6.857,6.857,0,0,1-1.547.157q-.438,0-.952-.027t-.951-.054q-.452-.028-.767-.055t-.37-.027h-.178c-.1,0-.224,0-.37.014s-.279,0-.424.014-.269.014-.37.014c-.146,0-.219-.036-.219-.11,0-.055.037-.082.11-.082a1.7,1.7,0,0,0,.205-.013,1.393,1.393,0,0,0,.206-.042.359.359,0,0,0,.281-.246,2.461,2.461,0,0,0,.116-.506,11.236,11.236,0,0,0,.062-1.213q.006-.773.007-1.759m1.15-2.629v2.739q0,.493.007.89c0,.265.008.488.014.671s.007.306.007.37c0,.082,0,.176.014.281s.018.207.027.308a2.1,2.1,0,0,0,.041.274.483.483,0,0,0,.069.178.78.78,0,0,0,.212.191,1.587,1.587,0,0,0,.411.178,3.92,3.92,0,0,0,.684.13,9.082,9.082,0,0,0,1.02.048,4.906,4.906,0,0,0,1.8-.329,4.177,4.177,0,0,0,1.458-.945,2.785,2.785,0,0,0,.466-.63,4.708,4.708,0,0,0,.349-.8,5.3,5.3,0,0,0,.212-.9,6.449,6.449,0,0,0,.069-.945,5.333,5.333,0,0,0-.123-1.191,4.987,4.987,0,0,0-.322-.966,4.5,4.5,0,0,0-.431-.753,5.749,5.749,0,0,0-.438-.541,4.512,4.512,0,0,0-1.013-.815,4.984,4.984,0,0,0-1.1-.472,5.765,5.765,0,0,0-1.158-.213c-.4-.031-.8-.048-1.211-.048q-.11,0-.24.007c-.087,0-.176.012-.267.02s-.171.02-.24.035a1.288,1.288,0,0,0-.144.034.267.267,0,0,0-.165.274c0,.119,0,.288-.007.507s-.007.463-.007.733v1.677Z" transform="translate(-83.733 -80.245)" fill="#fff"/>
    <path id="Path_104" data-name="Path 104" d="M230.624,202.673v2.41q0,.986.007,1.759a11.232,11.232,0,0,0,.061,1.212,1.536,1.536,0,0,0,.123.507.479.479,0,0,0,.411.246,3.114,3.114,0,0,0,.335.041c.123.01.217.014.281.014s.11.027.11.082c0,.073-.074.11-.22.11q-.287,0-.575-.007l-.527-.014-.4-.014-.185-.007-.184.007-.363.014-.424.014c-.147,0-.269.007-.37.007-.146,0-.219-.036-.219-.11,0-.055.037-.082.11-.082a1.586,1.586,0,0,0,.205-.014,1.318,1.318,0,0,0,.206-.041.36.36,0,0,0,.281-.246,2.468,2.468,0,0,0,.116-.507,11.22,11.22,0,0,0,.062-1.212q.006-.774.007-1.759v-4.526c0-.205,0-.37-.007-.492s-.012-.24-.021-.349q-.041-.671-.466-.767a1.712,1.712,0,0,0-.232-.041,1.924,1.924,0,0,0-.192-.014c-.073,0-.109-.027-.109-.083,0-.073.073-.109.219-.109q.164,0,.4.007l.438.014.363.013.184.007.185-.007.362-.013.424-.014q.219-.007.37-.007c.146,0,.219.036.219.109,0,.055-.036.083-.109.083-.046,0-.094,0-.144.007a1.782,1.782,0,0,0-.2.034.516.516,0,0,0-.376.24,1.346,1.346,0,0,0-.131.541q-.013.165-.02.349c0,.123-.007.287-.007.492v2.116Z" transform="translate(-92.258 -80.246)" fill="#fff"/>
    <path id="Path_105" data-name="Path 105" d="M240.5,209.116a5.6,5.6,0,0,1-.945-.08,3.453,3.453,0,0,1-.89-.28.29.29,0,0,1-.178-.154,1.473,1.473,0,0,1-.028-.362q0-.52.028-.9t.041-.548c.01-.145.046-.219.11-.219s.1.05.1.15c0,.064,0,.139.007.226a2.21,2.21,0,0,0,.033.281,1.729,1.729,0,0,0,.274.65,1.525,1.525,0,0,0,.472.432,2.172,2.172,0,0,0,.61.24,3,3,0,0,0,.671.075,2.1,2.1,0,0,0,.863-.165,1.875,1.875,0,0,0,.61-.419,1.721,1.721,0,0,0,.362-.582,1.86,1.86,0,0,0,.123-.658,2.428,2.428,0,0,0-.082-.652,2.028,2.028,0,0,0-.267-.575,3.517,3.517,0,0,0-.486-.576q-.3-.3-.74-.665l-.616-.507a8.181,8.181,0,0,1-.89-.836,4.066,4.066,0,0,1-.541-.747,2.669,2.669,0,0,1-.274-.7,3.166,3.166,0,0,1-.075-.693,2.466,2.466,0,0,1,.2-1,2.24,2.24,0,0,1,.568-.781,2.571,2.571,0,0,1,.89-.508,3.628,3.628,0,0,1,1.178-.178,6.48,6.48,0,0,1,.7.035,3.973,3.973,0,0,1,.569.1c.127.027.225.046.295.054a1.334,1.334,0,0,0,.184.014c.092,0,.137.032.137.1,0,.037-.009.171-.027.4s-.027.582-.027,1.048c0,.21-.032.315-.1.315q-.069,0-.082-.048a1.072,1.072,0,0,1-.027-.13c-.009-.082-.03-.2-.061-.349a1.077,1.077,0,0,0-.117-.335,1.252,1.252,0,0,0-.123-.178,1.093,1.093,0,0,0-.294-.246,2.019,2.019,0,0,0-.513-.213,2.926,2.926,0,0,0-.78-.089,1.768,1.768,0,0,0-1.2.418,1.459,1.459,0,0,0-.486,1.171,1.893,1.893,0,0,0,.075.541,1.671,1.671,0,0,0,.267.513,4.135,4.135,0,0,0,.514.562q.321.3.814.684l.383.3a9.741,9.741,0,0,1,.993.89,4.593,4.593,0,0,1,.616.788,2.5,2.5,0,0,1,.308.752,3.688,3.688,0,0,1,.082.788,3.043,3.043,0,0,1-.048.492,2.806,2.806,0,0,1-.178.6,2.962,2.962,0,0,1-.357.622,2.42,2.42,0,0,1-.581.555,2.762,2.762,0,0,1-.972.445,4.6,4.6,0,0,1-1.1.131" transform="translate(-96.302 -80.116)" fill="#fff"/>
    <path id="Path_106" data-name="Path 106" d="M260.831,202.673v2.41q0,.986.007,1.759a11.275,11.275,0,0,0,.061,1.212,1.55,1.55,0,0,0,.123.507.481.481,0,0,0,.411.246,3.078,3.078,0,0,0,.335.041c.123.01.217.014.281.014s.11.027.11.082c0,.073-.073.11-.219.11-.191,0-.383,0-.575-.007l-.527-.014-.4-.014-.185-.007-.185.007-.363.014-.424.014c-.146,0-.269.007-.37.007-.146,0-.219-.036-.219-.11,0-.055.036-.082.11-.082a1.592,1.592,0,0,0,.205-.014,1.3,1.3,0,0,0,.205-.041.36.36,0,0,0,.281-.246,2.473,2.473,0,0,0,.116-.507,11.072,11.072,0,0,0,.062-1.212q.006-.774.007-1.759v-1.438a.073.073,0,0,0-.082-.082h-5.807a.073.073,0,0,0-.082.082v1.438q0,.986.007,1.759a11.063,11.063,0,0,0,.062,1.212,1.522,1.522,0,0,0,.123.507.478.478,0,0,0,.41.246,3.126,3.126,0,0,0,.336.041c.123.01.217.014.281.014s.109.027.109.082c0,.073-.073.11-.219.11-.191,0-.383,0-.575-.007l-.528-.014-.4-.014-.185-.007-.185.007-.362.014-.424.014c-.147,0-.269.007-.37.007-.146,0-.219-.036-.219-.11q0-.082.109-.082a1.587,1.587,0,0,0,.206-.014,1.332,1.332,0,0,0,.206-.041.36.36,0,0,0,.28-.246,2.465,2.465,0,0,0,.117-.507,11.4,11.4,0,0,0,.061-1.212q.007-.774.007-1.759v-4.526c0-.205,0-.37-.007-.492s-.011-.24-.02-.349a1.215,1.215,0,0,0-.137-.534.652.652,0,0,0-.452-.247.9.9,0,0,0-.226-.034c-.1,0-.176-.007-.24-.007s-.11-.027-.11-.083c0-.073.073-.109.219-.109s.319,0,.492.007l.486.014.383.013.185.007.185-.007.363-.013.424-.014q.219-.007.37-.007c.146,0,.219.036.219.109,0,.055-.037.083-.11.083-.046,0-.094,0-.144.007a1.76,1.76,0,0,0-.2.034.518.518,0,0,0-.377.24,1.357,1.357,0,0,0-.13.541c-.009.11-.016.226-.021.349s-.007.287-.007.492v2.4a.073.073,0,0,0,.082.082H259.6a.073.073,0,0,0,.082-.082v-2.4c0-.205,0-.37-.007-.492s-.012-.24-.021-.349a1.223,1.223,0,0,0-.137-.534.654.654,0,0,0-.452-.247.906.906,0,0,0-.226-.034c-.1,0-.176-.007-.24-.007s-.11-.027-.11-.083c0-.073.073-.109.219-.109s.32,0,.494.007l.486.014.383.013.185.007.185-.007.363-.013.424-.014q.218-.007.37-.007.219,0,.219.109c0,.055-.036.083-.109.083-.046,0-.094,0-.144.007a1.757,1.757,0,0,0-.2.034.517.517,0,0,0-.377.24,1.346,1.346,0,0,0-.13.541q-.014.165-.02.349c-.005.123-.007.287-.007.492v2.116Z" transform="translate(-101.515 -80.246)" fill="#fff"/>
    <path id="Path_107" data-name="Path 107" d="M272.378,207.417l3.108-8.5a3.657,3.657,0,0,1,.178-.438c.036-.064.077-.1.123-.1a.153.153,0,0,1,.123.089,3.378,3.378,0,0,1,.178.4q.055.137.254.65t.479,1.26q.281.747.623,1.636l.678,1.76q.335.869.644,1.65t.513,1.3a5.217,5.217,0,0,0,.349.74,3.178,3.178,0,0,0,.315.452,1,1,0,0,0,.274.232,1.086,1.086,0,0,0,.239.1,1.222,1.222,0,0,0,.295.069c.1.009.18.013.253.013.091,0,.137.027.137.082s-.027.076-.082.089a.768.768,0,0,1-.192.021h-.8c-.2,0-.411,0-.643-.007s-.469-.012-.706-.02l-.3-.021c-.073,0-.11-.029-.11-.075s.032-.077.1-.1a.208.208,0,0,0,.109-.116.325.325,0,0,0-.027-.253l-1.273-3.368a.132.132,0,0,0-.123-.082h-2.944a.143.143,0,0,0-.137.11l-.822,2.423a2.789,2.789,0,0,0-.192.917.322.322,0,0,0,.171.3.7.7,0,0,0,.349.1h.137c.091,0,.136.027.136.082,0,.073-.069.11-.205.11q-.123,0-.288-.007l-.315-.014-.281-.013c-.086,0-.148-.007-.184-.007s-.108,0-.213.007l-.377.013-.465.014q-.247.007-.493.007t-.26-.11c0-.055.042-.082.123-.082.046,0,.11,0,.192-.006a1.847,1.847,0,0,0,.205-.021,1,1,0,0,0,.72-.417,3.965,3.965,0,0,0,.43-.87m1.917-3.026h2.616c.054,0,.073-.032.054-.1l-1.3-3.7q-.109-.3-.206,0l-1.2,3.7c-.027.064-.014.1.041.1" transform="translate(-109.325 -80.116)" fill="#fff"/>
    <path id="Path_108" data-name="Path 108" d="M290.366,206.062l-.219-3.642c0-.055-.007-.2-.02-.431s-.029-.493-.048-.781-.038-.561-.061-.821a4,4,0,0,0-.076-.554c-.018-.055-.031-.1-.041-.144a.548.548,0,0,1-.013-.117.374.374,0,0,1,.069-.191,2.485,2.485,0,0,1,.438-.513,2.689,2.689,0,0,1,.575-.418.515.515,0,0,1,.206-.069c.054,0,.082.046.082.137,0,.046-.026.23-.075.554s-.095.742-.131,1.253q0,.069-.028.513t-.054,1.082q-.027.637-.069,1.376t-.075,1.39q-.035.651-.055,1.109t-.035.541c-.008.1-.02.2-.033.295s-.057.144-.131.144-.121-.052-.144-.157a4.92,4.92,0,0,1-.062-.554m.234,3.053a.6.6,0,0,1-.521-.233.8.8,0,0,1-.163-.466.82.82,0,0,1,.163-.458.6.6,0,0,1,.534-.24.723.723,0,0,1,.5.178.613.613,0,0,1,.2.479.745.745,0,0,1-.2.527.671.671,0,0,1-.513.212" transform="translate(-117.071 -80.116)" fill="#fff"/>
  </g>
</svg>
